<?xml version="1.0" encoding="UTF-8"?>
<svg id="Layer_1" data-name="Layer 1" xmlns="http://www.w3.org/2000/svg" viewBox="0 0 77 76.26">
  <defs>
    <style>
      .cls-1 {
        fill: #fff;
      }
    </style>
  </defs>
  <path d="M10.27,73.69c-2.9,0-5.67,0-8.45,0-1.43,0-1.82-.38-1.82-1.79,0-5.64,0-11.28,0-16.92,0-1.43,.38-1.82,1.79-1.82,2.54,0,5.08,0,7.62,0h.86c0-.47-.02-.86,0-1.25,.04-.8,.52-1.3,1.32-1.31,3.4-.02,6.79-.02,10.19,0,.8,0,1.28,.51,1.31,1.32,.03,.69,0,1.38,0,2.15,.88-.22,1.68-.41,2.52-.62v-15.7c-1.16,0-2.3,0-3.44,0-1.45,0-1.99-.86-1.35-2.16,1.55-3.13,3.15-6.24,4.67-9.4,.46-.95,1.05-1.43,2.11-1.29,.18,.02,.36,0,.58,0,0-1.13,.07-2.2-.02-3.25-.09-1.06-.76-1.84-1.51-2.56-4.93-4.74-4.73-12.6,.47-17.05,.88-.75,1.93-1.33,2.98-1.85,1.1-.55,1.97,.05,1.98,1.3,.01,2.65,.02,5.29,0,7.94,0,.49,.13,.79,.55,1.03,.69,.4,1.35,1.18,2.03,1.18,.67,0,1.34-.78,2.03-1.18,.43-.24,.56-.55,.55-1.03-.02-2.59-.01-5.19-.01-7.78,0-1.48,.84-2.01,2.21-1.41,7.09,3.16,9.1,12.6,3.74,18.23-1.59,1.67-2.36,3.35-2.1,5.57,.03,.24,0,.48,0,.8,.25,.02,.47,.05,.7,.05,1.76,0,3.53,0,5.29,0q1.49,0,2.62-1.28c-.74,0-1.35,0-1.97,0-1.04-.02-1.51-.48-1.51-1.53-.01-1.55-.01-3.1,0-4.65,0-1.05,.47-1.5,1.53-1.52,.6,0,1.21,0,2,0-.58-.58-1.04-1.02-1.47-1.47-.66-.7-.68-1.36-.02-2.04,1.12-1.15,2.25-2.28,3.4-3.4,.71-.69,1.37-.67,2.1,.03,.44,.42,.85,.87,1.44,1.48,0-.87-.02-1.53,0-2.18,.03-.9,.5-1.38,1.4-1.39,1.63-.02,3.26-.02,4.89,0,.9,.01,1.37,.5,1.4,1.4,.02,.64,0,1.28,.16,2.05,.41-.44,.8-.88,1.22-1.3,.79-.79,1.43-.8,2.21-.03,1.11,1.09,2.2,2.18,3.29,3.29,.73,.75,.72,1.39-.02,2.16-.42,.43-.85,.85-1.42,1.41,.83,0,1.46-.01,2.09,0,.95,.02,1.43,.49,1.44,1.44,.02,1.6,.02,3.21,0,4.81,0,.95-.49,1.42-1.44,1.44-.63,.02-1.26,0-2.05,0,.68,.73,1.11,1.42,2.17,1.33,.38-.03,.99,.37,1.18,.73,1.73,3.34,3.41,6.71,5.08,10.09,.52,1.05-.07,1.94-1.26,1.96-1.2,.02-2.39,0-3.63,0v13.95c.14,.04,.28,.11,.43,.14,2.17,.43,3.78,2,4.16,4.04,.41,2.21-.53,4.29-2.52,5.45-3.29,1.93-6.61,3.83-9.92,5.74-3.75,2.16-7.5,4.31-11.24,6.49-1.64,.96-3.37,1.42-5.26,1.42-5.96-.02-11.92-.04-17.89,0-2.03,.02-3.92-.36-5.7-1.34-.25-.14-.52-.25-.9-.42,0,.62,.02,1.14,0,1.66-.03,.85-.51,1.35-1.36,1.36-3.37,.02-6.74,.02-10.1,0-.85,0-1.32-.5-1.36-1.36-.02-.37,0-.74,0-1.2Zm12.83-16.98v.94c0,3.85,.04,7.7-.03,11.55-.01,.89,.27,1.31,1.06,1.67,1.55,.7,3.02,1.56,4.82,1.55,6.31-.03,12.62,.03,18.93-.05,1.1-.01,2.32-.31,3.28-.84,7.18-4.06,14.31-8.21,21.45-12.35,1.37-.8,1.8-2.32,1.07-3.57-.73-1.24-2.28-1.63-3.63-.86-4.1,2.35-8.19,4.71-12.28,7.1-.24,.14-.46,.51-.47,.79-.18,3.41-3.15,5.68-6.47,4.82-5.04-1.31-10.06-2.67-15.08-4.02-.91-.24-1.31-.86-1.11-1.64,.2-.75,.88-1.07,1.79-.83,2.17,.57,4.33,1.15,6.5,1.73,2.81,.75,5.61,1.53,8.43,2.26,1.93,.5,3.61-.91,3.34-2.8-.19-1.32-1.1-1.92-2.31-2.24-5.57-1.48-11.13-2.99-16.7-4.47-1.49-.4-2.98-1.01-4.55-.67-2.68,.59-5.33,1.28-8.03,1.93Zm27.11-24.74s-.09,.03-.13,.04v24.61c2.21,.79,4.81,.72,6.29,3.01,.29-.15,.52-.27,.75-.41,3.86-2.23,7.71-4.47,11.59-6.67,.47-.27,.61-.55,.6-1.06-.02-4.33-.01-8.66-.01-12.99,0-.23-.03-.46-.04-.75h-.91c-4.68,0-9.35-.01-14.03,.01-.86,0-1.38-.31-1.75-1.09-.75-1.58-1.56-3.14-2.35-4.7Zm-21.93,5.78v14.97c.13-.01,.21-.01,.29-.03,.18-.04,.37-.08,.55-.13,1.98-.57,3.94-.54,5.92,.04,2.2,.65,4.43,1.2,6.65,1.79,1.9,.51,3.81,1.01,5.73,1.52V31.79c-.9,1.8-1.72,3.39-2.5,5-.33,.68-.82,.99-1.58,.98-1.63-.03-3.26,0-4.89,0-3.37,0-6.73,0-10.16,0ZM39.79,3.46c0,.38,0,.64,0,.9,0,2.03-.02,4.06,0,6.09,0,.72-.26,1.21-.85,1.6-1.15,.74-2.28,1.49-3.4,2.26-.61,.42-1.17,.42-1.77,0-1.1-.76-2.21-1.51-3.33-2.22-.65-.41-.94-.94-.93-1.72,.03-2.08,.01-4.17,0-6.25,0-.19-.04-.38-.07-.61-4.61,3.19-5.08,9.87-.99,13.75,1.62,1.53,2.44,3.33,2.35,5.55-.03,.68,0,1.37,0,2.04h2.57c0-1.18,0-2.3,0-3.43,0-1.06,.5-1.67,1.32-1.64,.79,.02,1.24,.61,1.25,1.63,0,1.14,0,2.28,0,3.44h2.57c0-.39,.03-.74,0-1.08-.24-2.73,.68-4.89,2.66-6.88,3.83-3.84,3.14-10.32-1.37-13.44ZM20.48,73.66v-20.46h-7.59v20.46h7.59Zm3.47-38.52c.21,.02,.34,.04,.46,.04,5.96,0,11.92,0,17.89,.01,.46,0,.66-.19,.84-.56,.95-1.94,1.93-3.87,2.89-5.81,.21-.42,.41-.85,.62-1.29-.15-.03-.2-.05-.25-.05-6.04,0-12.09-.01-18.13,.02-.27,0-.66,.3-.79,.57-.95,1.82-1.86,3.67-2.77,5.51-.25,.5-.49,.99-.76,1.55Zm49.71,.04c-1.21-2.42-2.36-4.67-3.46-6.96-.27-.56-.56-.77-1.2-.76-5.75,.03-11.5,.02-17.25,.02-.25,0-.51,.02-.84,.04,.14,.31,.24,.55,.36,.79,1.03,2.05,2.07,4.1,3.07,6.17,.25,.53,.54,.73,1.14,.72,5.78-.03,11.55-.02,17.33-.02,.24,0,.47,0,.85,0ZM2.62,55.76v15.3h7.6v-15.3H2.62ZM60.02,24.86h5.89c-.22-.23-.35-.4-.51-.53-.72-.6-.83-1.25-.45-2.13,.36-.85,.9-1.18,1.79-1.14,.84,.04,1.69,0,2.53,0v-2.57c-.91,0-1.79-.02-2.66,0-.84,.03-1.32-.35-1.64-1.12-.33-.78-.37-1.42,.31-2.02,.67-.6,1.31-1.23,1.95-1.84-.68-.69-1.25-1.28-1.87-1.9-.65,.66-1.31,1.29-1.92,1.96-.62,.67-1.28,.58-2.03,.26-.73-.31-1.11-.77-1.08-1.58,.03-.9,0-1.8,0-2.68h-2.57c0,.94-.02,1.82,0,2.7,.02,.81-.38,1.26-1.1,1.57-.77,.33-1.42,.39-2.03-.29-.6-.67-1.24-1.31-1.85-1.95-.68,.65-1.28,1.21-1.95,1.85,.68,.66,1.32,1.3,1.99,1.91,.68,.61,.61,1.27,.28,2.03-.31,.73-.76,1.12-1.57,1.1-.9-.02-1.8,0-2.7,0v2.57c.96,0,1.87-.06,2.77,.03,.43,.04,1.03,.25,1.22,.57,.69,1.21,.92,1.72-.21,2.74-.13,.12-.24,.26-.43,.47,.24,.02,.36,.04,.48,.04,1.73,0,3.45,0,5.31,0-3.3-1.51-4.57-3.63-3.9-6.38,.57-2.38,2.82-4.02,5.3-3.88,2.43,.14,4.46,2.06,4.78,4.53,.32,2.54-1.24,4.76-4.13,5.68Zm-.99-7.64c-1.4,0-2.55,1.15-2.55,2.55,0,1.43,1.18,2.6,2.61,2.57,1.39-.02,2.53-1.2,2.51-2.59-.02-1.4-1.17-2.54-2.57-2.53Z"/>
  <path class="cls-1" d="M10.27,73.69c-2.9,0-5.67,0-8.45,0-1.43,0-1.82-.38-1.82-1.79,0-5.64,0-11.28,0-16.92,0-1.43,.38-1.82,1.79-1.82,2.54,0,5.08,0,7.62,0h.86c0-.47-.02-.86,0-1.25,.04-.8,.52-1.3,1.32-1.31,3.4-.02,6.79-.02,10.19,0,.8,0,1.28,.51,1.31,1.32,.03,.69,0,1.38,0,2.15,.88-.22,1.68-.41,2.52-.62v-15.7c-1.16,0-2.3,0-3.44,0-1.45,0-1.99-.86-1.35-2.16,1.55-3.13,3.15-6.24,4.67-9.4,.46-.95,1.05-1.43,2.11-1.29,.18,.02,.36,0,.58,0,0-1.13,.07-2.2-.02-3.25-.09-1.06-.76-1.84-1.51-2.56-4.93-4.74-4.73-12.6,.47-17.05,.88-.75,1.93-1.33,2.98-1.85,1.1-.55,1.97,.05,1.98,1.3,.01,2.65,.02,5.29,0,7.94,0,.49,.13,.79,.55,1.03,.69,.4,1.35,1.18,2.03,1.18,.67,0,1.34-.78,2.03-1.18,.43-.24,.56-.55,.55-1.03-.02-2.59-.01-5.19-.01-7.78,0-1.48,.84-2.01,2.21-1.41,7.09,3.16,9.1,12.6,3.74,18.23-1.59,1.67-2.36,3.35-2.1,5.57,.03,.24,0,.48,0,.8,.25,.02,.47,.05,.7,.05,1.76,0,3.53,0,5.29,0q1.49,0,2.62-1.28c-.74,0-1.35,0-1.97,0-1.04-.02-1.51-.48-1.51-1.53-.01-1.55-.01-3.1,0-4.65,0-1.05,.47-1.5,1.53-1.52,.6,0,1.21,0,2,0-.58-.58-1.04-1.02-1.47-1.47-.66-.7-.68-1.36-.02-2.04,1.12-1.15,2.25-2.28,3.4-3.4,.71-.69,1.37-.67,2.1,.03,.44,.42,.85,.87,1.44,1.48,0-.87-.02-1.53,0-2.18,.03-.9,.5-1.38,1.4-1.39,1.63-.02,3.26-.02,4.89,0,.9,.01,1.37,.5,1.4,1.4,.02,.64,0,1.28,.16,2.05,.41-.44,.8-.88,1.22-1.3,.79-.79,1.43-.8,2.21-.03,1.11,1.09,2.2,2.18,3.29,3.29,.73,.75,.72,1.39-.02,2.16-.42,.43-.85,.85-1.42,1.41,.83,0,1.46-.01,2.09,0,.95,.02,1.43,.49,1.44,1.44,.02,1.6,.02,3.21,0,4.81,0,.95-.49,1.42-1.44,1.44-.63,.02-1.26,0-2.05,0,.68,.73,1.11,1.42,2.17,1.33,.38-.03,.99,.37,1.18,.73,1.73,3.34,3.41,6.71,5.08,10.09,.52,1.05-.07,1.94-1.26,1.96-1.2,.02-2.39,0-3.63,0v13.95c.14,.04,.28,.11,.43,.14,2.17,.43,3.78,2,4.16,4.04,.41,2.21-.53,4.29-2.52,5.45-3.29,1.93-6.61,3.83-9.92,5.74-3.75,2.16-7.5,4.31-11.24,6.49-1.64,.96-3.37,1.42-5.26,1.42-5.96-.02-11.92-.04-17.89,0-2.03,.02-3.92-.36-5.7-1.34-.25-.14-.52-.25-.9-.42,0,.62,.02,1.14,0,1.66-.03,.85-.51,1.35-1.36,1.36-3.37,.02-6.74,.02-10.1,0-.85,0-1.32-.5-1.36-1.36-.02-.37,0-.74,0-1.2Zm12.83-16.98v.94c0,3.85,.04,7.7-.03,11.55-.01,.89,.27,1.31,1.06,1.67,1.55,.7,3.02,1.56,4.82,1.55,6.31-.03,12.62,.03,18.93-.05,1.1-.01,2.32-.31,3.28-.84,7.18-4.06,14.31-8.21,21.45-12.35,1.37-.8,1.8-2.32,1.07-3.57-.73-1.24-2.28-1.63-3.63-.86-4.1,2.35-8.19,4.71-12.28,7.1-.24,.14-.46,.51-.47,.79-.18,3.41-3.15,5.68-6.47,4.82-5.04-1.31-10.06-2.67-15.08-4.02-.91-.24-1.31-.86-1.11-1.64,.2-.75,.88-1.07,1.79-.83,2.17,.57,4.33,1.15,6.5,1.73,2.81,.75,5.61,1.53,8.43,2.26,1.93,.5,3.61-.91,3.34-2.8-.19-1.32-1.1-1.92-2.31-2.24-5.57-1.48-11.13-2.99-16.7-4.47-1.49-.4-2.98-1.01-4.55-.67-2.68,.59-5.33,1.28-8.03,1.93Zm27.11-24.74s-.09,.03-.13,.04v24.61c2.21,.79,4.81,.72,6.29,3.01,.29-.15,.52-.27,.75-.41,3.86-2.23,7.71-4.47,11.59-6.67,.47-.27,.61-.55,.6-1.06-.02-4.33-.01-8.66-.01-12.99,0-.23-.03-.46-.04-.75h-.91c-4.68,0-9.35-.01-14.03,.01-.86,0-1.38-.31-1.75-1.09-.75-1.58-1.56-3.14-2.35-4.7Zm-21.93,5.78v14.97c.13-.01,.21-.01,.29-.03,.18-.04,.37-.08,.55-.13,1.98-.57,3.94-.54,5.92,.04,2.2,.65,4.43,1.2,6.65,1.79,1.9,.51,3.81,1.01,5.73,1.52V31.79c-.9,1.8-1.72,3.39-2.5,5-.33,.68-.82,.99-1.58,.98-1.63-.03-3.26,0-4.89,0-3.37,0-6.73,0-10.16,0ZM39.79,3.46c0,.38,0,.64,0,.9,0,2.03-.02,4.06,0,6.09,0,.72-.26,1.21-.85,1.6-1.15,.74-2.28,1.49-3.4,2.26-.61,.42-1.17,.42-1.77,0-1.1-.76-2.21-1.51-3.33-2.22-.65-.41-.94-.94-.93-1.72,.03-2.08,.01-4.17,0-6.25,0-.19-.04-.38-.07-.61-4.61,3.19-5.08,9.87-.99,13.75,1.62,1.53,2.44,3.33,2.35,5.55-.03,.68,0,1.37,0,2.04h2.57c0-1.18,0-2.3,0-3.43,0-1.06,.5-1.67,1.32-1.64,.79,.02,1.24,.61,1.25,1.63,0,1.14,0,2.28,0,3.44h2.57c0-.39,.03-.74,0-1.08-.24-2.73,.68-4.89,2.66-6.88,3.83-3.84,3.14-10.32-1.37-13.44ZM20.48,73.66v-20.46h-7.59v20.46h7.59Zm3.47-38.52c.21,.02,.34,.04,.46,.04,5.96,0,11.92,0,17.89,.01,.46,0,.66-.19,.84-.56,.95-1.94,1.93-3.87,2.89-5.81,.21-.42,.41-.85,.62-1.29-.15-.03-.2-.05-.25-.05-6.04,0-12.09-.01-18.13,.02-.27,0-.66,.3-.79,.57-.95,1.82-1.86,3.67-2.77,5.51-.25,.5-.49,.99-.76,1.55Zm49.71,.04c-1.21-2.42-2.36-4.67-3.46-6.96-.27-.56-.56-.77-1.2-.76-5.75,.03-11.5,.02-17.25,.02-.25,0-.51,.02-.84,.04,.14,.31,.24,.55,.36,.79,1.03,2.05,2.07,4.1,3.07,6.17,.25,.53,.54,.73,1.14,.72,5.78-.03,11.55-.02,17.33-.02,.24,0,.47,0,.85,0ZM2.62,55.76v15.3h7.6v-15.3H2.62ZM60.02,24.86h5.89c-.22-.23-.35-.4-.51-.53-.72-.6-.83-1.25-.45-2.13,.36-.85,.9-1.18,1.79-1.14,.84,.04,1.69,0,2.53,0v-2.57c-.91,0-1.79-.02-2.66,0-.84,.03-1.32-.35-1.64-1.12-.33-.78-.37-1.42,.31-2.02,.67-.6,1.31-1.23,1.95-1.84-.68-.69-1.25-1.28-1.87-1.9-.65,.66-1.31,1.29-1.92,1.96-.62,.67-1.28,.58-2.03,.26-.73-.31-1.11-.77-1.08-1.58,.03-.9,0-1.8,0-2.68h-2.57c0,.94-.02,1.82,0,2.7,.02,.81-.38,1.26-1.1,1.57-.77,.33-1.42,.39-2.03-.29-.6-.67-1.24-1.31-1.85-1.95-.68,.65-1.28,1.21-1.95,1.85,.68,.66,1.32,1.3,1.99,1.91,.68,.61,.61,1.27,.28,2.03-.31,.73-.76,1.12-1.57,1.1-.9-.02-1.8,0-2.7,0v2.57c.96,0,1.87-.06,2.77,.03,.43,.04,1.03,.25,1.22,.57,.69,1.21,.92,1.72-.21,2.74-.13,.12-.24,.26-.43,.47,.24,.02,.36,.04,.48,.04,1.73,0,3.45,0,5.31,0-3.3-1.51-4.57-3.63-3.9-6.38,.57-2.38,2.82-4.02,5.3-3.88,2.43,.14,4.46,2.06,4.78,4.53,.32,2.54-1.24,4.76-4.13,5.68Zm-.99-7.64c-1.4,0-2.55,1.15-2.55,2.55,0,1.43,1.18,2.6,2.61,2.57,1.39-.02,2.53-1.2,2.51-2.59-.02-1.4-1.17-2.54-2.57-2.53Z"/>
</svg>