<svg xmlns="http://www.w3.org/2000/svg" version="1.1" xmlns:xlink="http://www.w3.org/1999/xlink" width="50" height="50" x="0" y="0" viewBox="0 0 24 24" style="enable-background:new 0 0 512 512" xml:space="preserve" class=""><g><path d="M13.104 3.665A1.998 1.998 0 0 0 12 0a1.997 1.997 0 0 0-1.104 3.665l-7.86 19.649a.5.5 0 1 0 .927.371l1.074-2.686h13.924l1.074 2.686a.5.5 0 1 0 .927-.371L13.104 3.665Zm5.1 15.44-5.458-4.939 2.557-2.314 2.901 7.253ZM12 13.492 9.246 11h5.509l-2.754 2.492Zm-3.303-1.639 2.557 2.314-5.458 4.939 2.901-7.253ZM12 14.841 17.702 20H6.298L12 14.841ZM12 1a1.001 1.001 0 1 1-1 1c0-.551.448-1 1-1Zm0 3c.053 0 .103-.012.156-.016L14.562 10H9.438l2.406-6.016c.052.004.102.016.156.016Zm3.584-.222a4.02 4.02 0 0 0 .188-3.112.5.5 0 1 1 .944-.332 5.035 5.035 0 0 1-.235 3.888.501.501 0 0 1-.897-.444Zm-8.064.444A5.026 5.026 0 0 1 7.285.334a.5.5 0 0 1 .944.332 4.029 4.029 0 0 0 .188 3.112.501.501 0 0 1-.897.444Zm9.641 3.243a.499.499 0 0 1-.026-.707A6.98 6.98 0 0 0 18.86.599a.499.499 0 0 1 .391-.589.504.504 0 0 1 .59.39c.106.523.16 1.062.16 1.6a7.969 7.969 0 0 1-2.134 5.438.5.5 0 0 1-.706.027ZM6.135 7.438A7.97 7.97 0 0 1 4.001 2c0-.538.054-1.076.16-1.6a.5.5 0 0 1 .981.199 6.98 6.98 0 0 0 1.725 6.159.5.5 0 1 1-.732.68ZM22 2c0-.479-.034-.96-.102-1.429a.5.5 0 1 1 .99-.142c.074.516.111 1.044.111 1.571 0 3.389-1.527 6.538-4.19 8.639a.5.5 0 0 1-.619-.785A9.95 9.95 0 0 0 22 2ZM1 2c0-.527.037-1.056.111-1.571a.501.501 0 0 1 .991.142A10.12 10.12 0 0 0 2 2a9.95 9.95 0 0 0 3.81 7.854.5.5 0 1 1-.619.785A10.94 10.94 0 0 1 1 2Z" fill="#00a9e9" opacity="1" data-original="#000000" class=""></path></g></svg>