<svg xmlns="http://www.w3.org/2000/svg" version="1.1" xmlns:xlink="http://www.w3.org/1999/xlink" width="50" height="50" x="0" y="0" viewBox="0 0 24 24" style="enable-background:new 0 0 512 512" xml:space="preserve" class=""><g><path d="m23.5 10.969-2.133-2.911A2.592 2.592 0 0 0 19.282 7H4.718c-.821 0-1.601.396-2.085 1.057L.5 10.969c-.762 1.041-.65 2.454.29 3.386L12 23.998l11.236-9.667a2.57 2.57 0 0 0 .264-3.361Zm-2.939-2.32 2.133 2.912a1.6 1.6 0 0 1 .228.439h-6.083l-1.6-4h4.044c.503 0 .981.242 1.278.648ZM8.239 12.001l1.6-4h4.324l1.6 4H8.24Zm7.512 1L12 22.035l-3.751-9.034h7.501ZM3.439 8.647A1.59 1.59 0 0 1 4.717 8h4.044l-1.6 4H1.079c.051-.154.127-.302.228-.439L3.44 8.648ZM1.08 13h6.086l3.566 8.588-9.263-7.967A1.6 1.6 0 0 1 1.08 13Zm12.188 8.588L16.834 13h6.092a1.504 1.504 0 0 1-.368.597l-9.29 7.991ZM12.5 4h-1V0h1v4Zm4.922.525-.844-.537 2-3.142.844.537-2 3.142Zm-10.844 0-2-3.142.844-.537 2 3.142-.844.537Z" fill="#00a9e9" opacity="1" data-original="#000000"></path></g></svg>