<svg xmlns="http://www.w3.org/2000/svg" version="1.1" xmlns:xlink="http://www.w3.org/1999/xlink" width="50" height="50" x="0" y="0" viewBox="0 0 24 24" style="enable-background:new 0 0 512 512" xml:space="preserve" class=""><g><path d="M22.26 6.493a41.095 41.095 0 0 0-1.942-2.15l.621-.625a.5.5 0 1 0-.709-.705l-.617.621a41.088 41.088 0 0 0-2.134-1.95 2.831 2.831 0 0 0-3.871.155l-2.741 2.758a.5.5 0 0 0-.052.644c.055.077 1.305 1.818 3.323 3.899l-4.982 5.011c-2.084-2.043-3.799-3.284-3.875-3.339a.501.501 0 0 0-.646.054l-2.741 2.757a2.864 2.864 0 0 0-.154 3.885 41.095 41.095 0 0 0 1.942 2.15l-.621.625a.5.5 0 1 0 .709.706l.617-.621a41.088 41.088 0 0 0 2.134 1.95 2.831 2.831 0 0 0 3.87-.156l2.741-2.758a.5.5 0 0 0 .052-.644c-.055-.077-1.305-1.818-3.323-3.899l4.982-5.011c2.084 2.043 3.799 3.284 3.875 3.339a.498.498 0 0 0 .646-.053l2.741-2.757a2.863 2.863 0 0 0 .154-3.885ZM9.682 21.455a1.836 1.836 0 0 1-2.513.099 40.137 40.137 0 0 1-2.43-2.247 39.823 39.823 0 0 1-2.234-2.444 1.87 1.87 0 0 1 .098-2.535l2.434-2.448a39.33 39.33 0 0 1 7.082 7.124l-2.438 2.452ZM21.396 9.673l-2.434 2.448a39.33 39.33 0 0 1-7.082-7.124l2.438-2.452a1.838 1.838 0 0 1 2.513-.099c.84.714 1.657 1.471 2.43 2.247.768.772 1.52 1.595 2.234 2.444a1.87 1.87 0 0 1-.098 2.535Z" fill="#00a9e9" opacity="1" data-original="#000000" class=""></path></g></svg>