<svg xmlns="http://www.w3.org/2000/svg" version="1.1" xmlns:xlink="http://www.w3.org/1999/xlink" width="50" height="50" x="0" y="0" viewBox="0 0 24 24" style="enable-background:new 0 0 512 512" xml:space="preserve"><g><path d="M19.5 13h-3.325l.764-5.942c.167-.745-.012-1.513-.489-2.108s-1.188-.937-1.951-.937h-2.934l.212-1.699A1.502 1.502 0 0 1 13.265 1h3.234a.5.5 0 0 0 0-1h-3.234a2.502 2.502 0 0 0-2.48 2.19l-.228 1.823H2.501c-.762 0-1.472.341-1.949.935-.477.594-.657 1.361-.501 2.055l1.536 13.023a4.502 4.502 0 0 0 4.469 3.973H19.5c2.481 0 4.5-2.019 4.5-4.5v-2c0-2.481-2.019-4.5-4.5-4.5Zm3.5 4.5v.5H10v-.5c0-1.93 1.57-3.5 3.5-3.5h6c1.93 0 3.5 1.57 3.5 3.5ZM18.849 19l-1.349.899L16.151 19h2.697Zm-4.35-13.987c.458 0 .884.205 1.17.562.287.357.394.818.286 1.31L15.811 8h-4.745l.374-2.987h3.059Zm-13.167.56a1.493 1.493 0 0 1 1.169-.561h7.931l-.374 2.987H1.174l-.137-1.163a1.495 1.495 0 0 1 .295-1.264ZM6.056 23a3.501 3.501 0 0 1-3.476-3.09L1.292 9h14.39l-.516 4h-1.667a4.505 4.505 0 0 0-4.5 4.5v2c0 1.412.654 2.674 1.675 3.5H6.056ZM19.5 23h-6c-1.93 0-3.5-1.57-3.5-3.5V19h4.349l2.874 1.916a.5.5 0 0 0 .554 0L20.651 19H23v.5c0 1.93-1.57 3.5-3.5 3.5Z" fill="#00a9ea" opacity="1" data-original="#000000"></path></g></svg>