<svg xmlns="http://www.w3.org/2000/svg" version="1.1" xmlns:xlink="http://www.w3.org/1999/xlink" width="50" height="50" x="0" y="0" viewBox="0 0 24 24" style="enable-background:new 0 0 512 512" xml:space="preserve" class="hovered-paths"><g><path d="m.848 15.494 2.075 1.476a5.649 5.649 0 0 0 5.708.495l13.932-6.677a2.533 2.533 0 0 0 1.203-3.338 2.506 2.506 0 0 0-3.319-1.219l-.007.004-4.002 1.932a.346.346 0 0 0-.031-.022L9.185 3.492a2.502 2.502 0 0 0-2.542-.26l-.781.367a1.495 1.495 0 0 0-.846 1.144 1.495 1.495 0 0 0 .488 1.335l5.346 4.785-5.06 2.442-3.238-1.189a1.92 1.92 0 0 0-2.17.629 1.82 1.82 0 0 0-.361 1.397c.079.542.38 1.034.828 1.352ZM6.169 5.332c-.128-.114-.188-.276-.164-.446s.127-.309.282-.381l.778-.365a1.507 1.507 0 0 1 1.55.174l6.769 4.362-3.561 1.719-5.654-5.063Zm-5 8.028a.93.93 0 0 1 .729-.36c.104 0 .208.019.309.056l3.437 1.262a.499.499 0 0 0 .39-.02l14.837-7.16a1.504 1.504 0 0 1 1.989.732 1.53 1.53 0 0 1-.728 2.016L8.2 16.563a4.657 4.657 0 0 1-4.697-.407L1.428 14.68a1.02 1.02 0 0 1-.417-.682.83.83 0 0 1 .16-.638ZM24 23.5a.5.5 0 0 1-.5.5H.5a.5.5 0 0 1 0-1h23a.5.5 0 0 1 .5.5Z" fill="#00a9e9" opacity="1" data-original="#000000" class="hovered-path"></path></g></svg>