<svg xmlns="http://www.w3.org/2000/svg" version="1.1" xmlns:xlink="http://www.w3.org/1999/xlink" width="50" height="50" x="0" y="0" viewBox="0 0 24 24" style="enable-background:new 0 0 512 512" xml:space="preserve" class=""><g><path d="M23.204 6.196c-.499-.277-1.087-.261-1.605.066L16 10.495V7.547c0-.57-.298-1.075-.796-1.352a1.538 1.538 0 0 0-1.594.057L8 10.24V1h.5a.5.5 0 0 0 0-1h-8a.5.5 0 0 0 0 1H1v18.5C1 21.981 3.019 24 5.5 24h14c2.481 0 4.5-2.019 4.5-4.5V7.547c0-.57-.298-1.075-.796-1.352ZM23 19.5c0 1.93-1.57 3.5-3.5 3.5h-14C3.57 23 2 21.43 2 19.5V1h5v18.5a.5.5 0 0 0 1 0v-8.031l6.165-4.384a.532.532 0 0 1 .554-.014.534.534 0 0 1 .281.477v3.953a.5.5 0 0 0 .801.399l6.363-4.814a.532.532 0 0 1 .554-.014.534.534 0 0 1 .281.477v11.953ZM13.5 16h-1c-.827 0-1.5.673-1.5 1.5v1c0 .827.673 1.5 1.5 1.5h1c.827 0 1.5-.673 1.5-1.5v-1c0-.827-.673-1.5-1.5-1.5Zm.5 2.5a.5.5 0 0 1-.5.5h-1a.5.5 0 0 1-.5-.5v-1a.5.5 0 0 1 .5-.5h1a.5.5 0 0 1 .5.5v1Zm5.5-2.5h-1c-.827 0-1.5.673-1.5 1.5v1c0 .827.673 1.5 1.5 1.5h1c.827 0 1.5-.673 1.5-1.5v-1c0-.827-.673-1.5-1.5-1.5Zm.5 2.5a.5.5 0 0 1-.5.5h-1a.5.5 0 0 1-.5-.5v-1a.5.5 0 0 1 .5-.5h1a.5.5 0 0 1 .5.5v1Z" fill="#00a9e9" opacity="1" data-original="#000000" class=""></path></g></svg>