<svg xmlns="http://www.w3.org/2000/svg" version="1.1" xmlns:xlink="http://www.w3.org/1999/xlink" width="50" height="50" x="0" y="0" viewBox="0 0 24 24" style="enable-background:new 0 0 512 512" xml:space="preserve" class=""><g><path d="M23.379.477a1.816 1.816 0 0 0-1.43-.464c-6.617.797-9.053 6.063-9.944 9.488l-.006-.001-.006.001C11.104 6.075 8.668.81 2.051.013a1.832 1.832 0 0 0-1.43.464A1.894 1.894 0 0 0 0 1.927c.089 3.481 1.195 6.218 3.289 8.133 2.902 2.654 6.804 2.932 8.211 2.94v10.499a.5.5 0 0 0 1 0V13c1.407-.008 5.31-.286 8.211-2.94 2.094-1.916 3.2-4.652 3.289-8.133a1.896 1.896 0 0 0-.621-1.451ZM3.958 9.316C2.076 7.592 1.081 5.097 1 1.902a.893.893 0 0 1 .294-.685.78.78 0 0 1 .638-.211c7.97.96 9.312 8.86 9.528 10.992-1.316-.022-4.916-.311-7.502-2.681Zm16.084 0c-2.587 2.37-6.186 2.659-7.502 2.681.217-2.131 1.559-10.031 9.528-10.992a.8.8 0 0 1 .638.211.895.895 0 0 1 .294.686c-.081 3.195-1.076 5.689-2.958 7.414Z" fill="#00a9e9" opacity="1" data-original="#000000" class=""></path></g></svg>