<svg xmlns="http://www.w3.org/2000/svg" version="1.1" xmlns:xlink="http://www.w3.org/1999/xlink" width="50" height="50" x="0" y="0" viewBox="0 0 24 24" style="enable-background:new 0 0 512 512" xml:space="preserve" class=""><g><path d="M10.5 15h-1a.5.5 0 0 1 0-1h1a.5.5 0 0 1 0 1Zm4.5-.5a.5.5 0 0 0-.5-.5h-1a.5.5 0 0 0 0 1h1a.5.5 0 0 0 .5-.5Zm-4 4a.5.5 0 0 0-.5-.5h-1a.5.5 0 0 0 0 1h1a.5.5 0 0 0 .5-.5Zm4 0a.5.5 0 0 0-.5-.5h-1a.5.5 0 0 0 0 1h1a.5.5 0 0 0 .5-.5Zm-4-12a.5.5 0 0 0-.5-.5h-1a.5.5 0 0 0 0 1h1a.5.5 0 0 0 .5-.5Zm4 0a.5.5 0 0 0-.5-.5h-1a.5.5 0 0 0 0 1h1a.5.5 0 0 0 .5-.5Zm-4 4a.5.5 0 0 0-.5-.5h-1a.5.5 0 0 0 0 1h1a.5.5 0 0 0 .5-.5Zm4 0a.5.5 0 0 0-.5-.5h-1a.5.5 0 0 0 0 1h1a.5.5 0 0 0 .5-.5Zm9 8.942V9.5C24 7.019 21.981 5 19.5 5H19v-.442A4.563 4.563 0 0 0 14.442 0H9.5A4.505 4.505 0 0 0 5 4.5V9h-.5A4.505 4.505 0 0 0 0 13.5v6C0 21.981 2.019 24 4.5 24h14.942A4.564 4.564 0 0 0 24 19.442ZM5.5 10a.5.5 0 0 0 .5-.5v-5C6 2.57 7.57 1 9.5 1h4.942A3.562 3.562 0 0 1 18 4.558V5.5a.5.5 0 0 0 .5.5h1C21.43 6 23 7.57 23 9.5v9.942A3.562 3.562 0 0 1 19.442 23H4.5C2.57 23 1 21.43 1 19.5v-6C1 11.57 2.57 10 4.5 10h1ZM20 14.5a.5.5 0 0 0-.5-.5h-1a.5.5 0 0 0 0 1h1a.5.5 0 0 0 .5-.5Zm0 4a.5.5 0 0 0-.5-.5h-1a.5.5 0 0 0 0 1h1a.5.5 0 0 0 .5-.5Zm-14-4a.5.5 0 0 0-.5-.5h-1a.5.5 0 0 0 0 1h1a.5.5 0 0 0 .5-.5Zm0 4a.5.5 0 0 0-.5-.5h-1a.5.5 0 0 0 0 1h1a.5.5 0 0 0 .5-.5Zm14-8a.5.5 0 0 0-.5-.5h-1a.5.5 0 0 0 0 1h1a.5.5 0 0 0 .5-.5Z" fill="#00a9e9" opacity="1" data-original="#000000" class=""></path></g></svg>