<svg xmlns="http://www.w3.org/2000/svg" version="1.1" xmlns:xlink="http://www.w3.org/1999/xlink" width="50" height="50" x="0" y="0" viewBox="0 0 24 24" style="enable-background:new 0 0 512 512" xml:space="preserve"><g><path d="M21.5 10H5.709l16.032-4.028c1.055-.241 1.746-1.407 1.446-2.448l-.198-.752c-.2-.938-.759-1.734-1.572-2.241s-1.776-.655-2.706-.424L2.685 4.142C.854 4.603-.292 6.474.131 8.328l.86 3.292c.001.005.007.008.009.013V19.5C1 21.981 3.019 24 5.5 24h14c2.481 0 4.5-2.019 4.5-4.5v-7c0-1.379-1.121-2.5-2.5-2.5ZM8.013 3.832l4.512-1.136-3.512 5.443-4.509 1.133 3.5-5.418c.004-.007.005-.015.009-.022Zm10.554-2.657-3.424 5.424-4.709 1.183 3.512-5.444 4.621-1.163Zm3.45 1.828.204.775a1.005 1.005 0 0 1-.724 1.224l-4.95 1.244 3.289-5.208c.368.04.728.14 1.052.342a2.5 2.5 0 0 1 1.129 1.624ZM2.929 5.111l3.669-.923-3.505 5.425s-.003.01-.006.014L1.604 10H1.6l-.499-1.909a2.515 2.515 0 0 1 1.827-2.979ZM23 19.5c0 1.93-1.57 3.5-3.5 3.5h-14C3.57 23 2 21.43 2 19.5V11h19.5c.827 0 1.5.673 1.5 1.5v7Z" fill="#00a9e9" opacity="1" data-original="#000000"></path></g></svg>