<svg xmlns="http://www.w3.org/2000/svg" version="1.1" xmlns:xlink="http://www.w3.org/1999/xlink" width="50" height="50" x="0" y="0" viewBox="0 0 24 24" style="enable-background:new 0 0 512 512" xml:space="preserve" class=""><g><path d="M20 6.051V4.5C20 2.019 17.981 0 15.5 0h-7A4.505 4.505 0 0 0 4 4.5v1.551C1.756 6.303 0 8.19 0 10.5v9C0 21.981 2.019 24 4.5 24h15c2.481 0 4.5-2.019 4.5-4.5v-9c0-2.31-1.756-4.197-4-4.449ZM1 19.5v-9c0-1.758 1.308-3.204 3-3.449V22.95c-1.692-.245-3-1.691-3-3.449Zm4-15C5 2.57 6.57 1 8.5 1h7C17.43 1 19 2.57 19 4.5V23H5V4.5Zm18 15c0 1.758-1.308 3.204-3 3.449V7.051c1.692.245 3 1.691 3 3.449v9Zm-12-5a.5.5 0 0 1-.5.5h-2a.5.5 0 0 1 0-1h2a.5.5 0 0 1 .5.5Zm5 0a.5.5 0 0 1-.5.5h-2a.5.5 0 0 1 0-1h2a.5.5 0 0 1 .5.5Zm-5 4a.5.5 0 0 1-.5.5h-2a.5.5 0 0 1 0-1h2a.5.5 0 0 1 .5.5Zm5 0a.5.5 0 0 1-.5.5h-2a.5.5 0 0 1 0-1h2a.5.5 0 0 1 .5.5Zm-3.5-11v2a.5.5 0 0 1-1 0v-2h-2a.5.5 0 0 1 0-1h2v-2a.5.5 0 0 1 1 0v2h2a.5.5 0 0 1 0 1h-2Z" fill="#00a9e9" opacity="1" data-original="#000000" class=""></path></g></svg>