<svg xmlns="http://www.w3.org/2000/svg" version="1.1" xmlns:xlink="http://www.w3.org/1999/xlink" width="50" height="50" x="0" y="0" viewBox="0 0 24 24" style="enable-background:new 0 0 512 512" xml:space="preserve" class=""><g><path d="M24 5.5v10.101c0 2.003-.78 3.887-2.197 5.303l-2.95 2.95a.498.498 0 0 1-.708 0 .5.5 0 0 1 0-.707l2.95-2.95a6.457 6.457 0 0 0 1.904-4.596V5.5c0-.827-.673-1.5-1.5-1.5s-1.5.673-1.5 1.5c0 0-.002 8.045-.005 8.067a2.487 2.487 0 0 1-.579 1.533l-2.638 2.746a.498.498 0 0 1-.707.013.5.5 0 0 1-.014-.707l2.616-2.721c.218-.26.328-.591.328-.924v-.046a1.513 1.513 0 0 0-.382-.965 1.5 1.5 0 0 0-2.113-.116l-2.729 2.512a5.438 5.438 0 0 0-1.231 1.663c.297.753.456 1.562.456 2.385v4.559a.5.5 0 0 1-1 0V18.94a5.511 5.511 0 0 0-1.776-4.047l-2.734-2.516a1.497 1.497 0 0 0-2.108.12 1.503 1.503 0 0 0-.032 1.96l2.593 2.695a.5.5 0 0 1-.721.693l-2.616-2.721a2.543 2.543 0 0 1-.597-1.526c-.006-.032-.01-8.1-.01-8.1 0-.827-.673-1.5-1.5-1.5S1 4.671 1 5.498v10.101c0 1.736.676 3.369 1.904 4.596l2.95 2.95a.5.5 0 0 1-.708.707l-2.95-2.95a7.45 7.45 0 0 1-2.197-5.303V5.5c0-1.378 1.122-2.5 2.5-2.5s2.5 1.122 2.5 2.5v5.998a2.5 2.5 0 0 1 3.162.138l2.739 2.521a6.5 6.5 0 0 1 1.098 1.321 6.51 6.51 0 0 1 1.1-1.321l2.734-2.516a2.503 2.503 0 0 1 3.167-.143V5.5c0-1.378 1.122-2.5 2.5-2.5s2.5 1.122 2.5 2.5ZM7 2.93C7 1.314 8.233 0 9.75 0c.962 0 1.765.415 2.25 1.09C12.485.415 13.288 0 14.25 0 15.767 0 17 1.314 17 2.93c0 2.115-2.549 4.708-3.896 5.783a1.766 1.766 0 0 1-2.207 0C9.549 7.638 7 5.046 7 2.93Zm1 0c0 1.512 2.059 3.835 3.521 5a.763.763 0 0 0 .959 0c1.461-1.166 3.52-3.488 3.52-5C16 1.866 15.215 1 14.25 1c-1.03 0-1.75.703-1.75 1.709a.5.5 0 0 1-1 0C11.5 1.703 10.78 1 9.75 1 8.785 1 8 1.866 8 2.93Z" fill="#00a9e9" opacity="1" data-original="#000000" class=""></path></g></svg>