<svg xmlns="http://www.w3.org/2000/svg" version="1.1" xmlns:xlink="http://www.w3.org/1999/xlink" width="50" height="50" x="0" y="0" viewBox="0 0 24 24" style="enable-background:new 0 0 512 512" xml:space="preserve" class=""><g><path d="M22 15.023V14.5c0-2.481-2.019-4.5-4.5-4.5S13 12.019 13 14.5v.523a2.194 2.194 0 0 0-1.462.743 2.21 2.21 0 0 0-.514 1.766l.6 4.088a2.803 2.803 0 0 0 2.756 2.381h6.239a2.8 2.8 0 0 0 2.756-2.381l.6-4.088a2.207 2.207 0 0 0-.514-1.766 2.196 2.196 0 0 0-1.462-.743ZM17.5 11c1.93 0 3.5 1.57 3.5 3.5v.5h-7v-.5c0-1.93 1.57-3.5 3.5-3.5Zm5.487 6.386-.6 4.088A1.796 1.796 0 0 1 20.62 23h-6.239a1.796 1.796 0 0 1-1.767-1.526l-.6-4.088A1.21 1.21 0 0 1 13.211 16h8.58a1.21 1.21 0 0 1 1.197 1.386ZM19.5 0h-15A4.505 4.505 0 0 0 0 4.5v13C0 19.981 2.019 22 4.5 22h4a.5.5 0 0 0 0-1h-4C2.57 21 1 19.43 1 17.5V8h22v3.5a.5.5 0 0 0 1 0v-7C24 2.019 21.981 0 19.5 0ZM1 7V4.5C1 2.57 2.57 1 4.5 1h15C21.43 1 23 2.57 23 4.5V7H1Zm4-3a1 1 0 1 1-2 0 1 1 0 0 1 2 0Zm3 0a1 1 0 1 1-2 0 1 1 0 0 1 2 0Zm3 0a1 1 0 1 1-2 0 1 1 0 0 1 2 0Z" fill="#00a9e9" opacity="1" data-original="#000000" class=""></path></g></svg>