<svg xmlns="http://www.w3.org/2000/svg" version="1.1" xmlns:xlink="http://www.w3.org/1999/xlink" width="50" height="50" x="0" y="0" viewBox="0 0 24 24" style="enable-background:new 0 0 512 512" xml:space="preserve" class=""><g><path d="M13.5 23h-9C2.57 23 1 21.43 1 19.5v-15C1 2.57 2.57 1 4.5 1h5.515c.335 0 .663.038.985.096V6.5C11 7.878 12.122 9 13.5 9h5.389c.033.18.078.357.092.541a.506.506 0 0 0 .539.458.5.5 0 0 0 .458-.539 6.503 6.503 0 0 0-1.883-4.07L14.61 1.905A6.457 6.457 0 0 0 10.014.001H4.5A4.504 4.504 0 0 0 0 4.5v15C0 21.981 2.019 24 4.5 24h9a.5.5 0 0 0 0-1Zm3.889-16.904A5.492 5.492 0 0 1 18.608 8H13.5c-.827 0-1.5-.673-1.5-1.5V1.379a5.492 5.492 0 0 1 1.904 1.231l3.485 3.485Zm6.464 17.05-5.255-5.255 2.293-2.293.435.435c.452.466 1.172-.255.707-.707l-4.68-4.68a.5.5 0 0 0-.707.707l.409.409-5.293 5.293-.409-.409a.5.5 0 0 0-.707.707l4.68 4.68c.452.466 1.172-.255.707-.707l-.435-.435 2.293-2.293 5.255 5.255c.452.466 1.172-.255.707-.707Zm-11.384-5.384 5.293-5.293 2.422 2.422-5.293 5.293-2.422-2.422ZM4 8.5a.5.5 0 0 1 .5-.5h4a.5.5 0 0 1 0 1h-4a.5.5 0 0 1-.5-.5Zm9.5 3.5h-9a.5.5 0 0 1 0-1h9a.5.5 0 0 1 0 1Zm-3 3h-6a.5.5 0 0 1 0-1h6a.5.5 0 0 1 0 1Zm-3 2a.5.5 0 0 1 0 1h-3a.5.5 0 0 1 0-1h3Z" fill="#00a9ea" opacity="1" data-original="#000000" class=""></path></g></svg>