<svg xmlns="http://www.w3.org/2000/svg" version="1.1" xmlns:xlink="http://www.w3.org/1999/xlink" width="50" height="50" x="0" y="0" viewBox="0 0 24 24" style="enable-background:new 0 0 512 512" xml:space="preserve" class=""><g><path d="M8.5 12H3V5.965c0-.329.036-.652.104-.965H10v4.5a.5.5 0 0 0 1 0V5h6.896c.039.179.068.361.085.546a.508.508 0 0 0 .544.452.5.5 0 0 0 .452-.544c-.208-2.257-1.797-4.177-3.954-4.775C13.404.229 11.881 0 10.501 0S7.598.229 5.979.679c-2.342.65-3.978 2.824-3.978 5.286V8c-1.103 0-2 .897-2 2v1c0 1.103.897 2 2 2v3.5c0 1.208.86 2.218 2 2.45V20a2.002 2.002 0 0 0 3.887.667.501.501 0 0 0-.944-.334A1 1 0 0 1 5.001 20v-1h1.5a.5.5 0 0 0 0-1h-2c-.827 0-1.5-.673-1.5-1.5V13h5.5a.5.5 0 0 0 0-1ZM6.245 1.642C7.777 1.216 9.209 1 10.5 1s2.723.216 4.255.642A4.447 4.447 0 0 1 17.55 4H3.449a4.434 4.434 0 0 1 2.796-2.358ZM2 12a1 1 0 0 1-1-1v-1a1 1 0 0 1 1-1v3Zm21.33 3.538-.911-2.552a4.511 4.511 0 0 0-2.678-2.706l-.191-.765a1.997 1.997 0 0 0-1.94-1.516h-2.219c-.92 0-1.718.623-1.94 1.516l-.191.765a4.506 4.506 0 0 0-2.678 2.706l-.911 2.552a11.618 11.618 0 0 0-.67 3.962c0 1.208.86 2.218 2 2.45v.55c0 .827.673 1.5 1.5 1.5s1.5-.673 1.5-1.5V22h5v.5c0 .827.673 1.5 1.5 1.5s1.5-.673 1.5-1.5v-.55c1.14-.234 2-1.254 2-2.544 0-1.322-.226-2.623-.67-3.867Zm-8.909-5.78a.998.998 0 0 1 .97-.758h2.219c.46 0 .858.312.97.758l.067.267a4.497 4.497 0 0 0-.465-.025h-3.361c-.157 0-.312.009-.465.025l.067-.267Zm-2.898 3.564A3.507 3.507 0 0 1 14.82 11h3.361c1.476 0 2.801.934 3.297 2.322L22.433 16H10.568l.955-2.678Zm1.478 9.178c0 .275-.225.5-.5.5s-.5-.225-.5-.5V22h1v.5Zm8 0c0 .275-.225.5-.5.5s-.5-.225-.5-.5V22h1v.5Zm.5-1.5H11.5c-.827 0-1.5-.673-1.5-1.595 0-.814.094-1.619.279-2.405H13v1.5a.5.5 0 0 0 1 0V17h5v1.5a.5.5 0 0 0 1 0V17h2.72c.186.794.28 1.621.28 2.5 0 .827-.673 1.5-1.5 1.5Z" fill="#00a9e9" opacity="1" data-original="#000000" class=""></path></g></svg>