<svg xmlns="http://www.w3.org/2000/svg" version="1.1" xmlns:xlink="http://www.w3.org/1999/xlink" width="35" height="35" x="0" y="0" viewBox="0 0 24 24" style="enable-background:new 0 0 512 512" xml:space="preserve" class=""><g><path d="M24 8c0 1.064-.256 2.205-.762 3.392a1 1 0 1 1-1.84-.784C21.797 9.67 22 8.793 22 8c0-2.71-2.061-5-4.5-5-2.235 0-3.508.905-4.366 1.694L9.31 8.243c-.353.354-.437.949-.163 1.33a1 1 0 0 0 1.527.133l4.173-3.995a1.001 1.001 0 0 1 1.383 1.445l-1.238 1.185 4.747 4.166c1.112.976 1.386 2.615.637 3.812a2.943 2.943 0 0 1-2.238 1.376 2.814 2.814 0 0 1-.422 1.475 2.943 2.943 0 0 1-2.618 1.384 2.785 2.785 0 0 1-.395 1.091c-.461.736-1.204 1.387-2.492 1.387a2.92 2.92 0 0 1-1.931-.728L7.176 19.52C3.901 16.56 0 12.161 0 8c0-3.86 2.916-7 6.5-7 .826 0 1.633.168 2.397.5a1 1 0 1 1-.795 1.835 4.006 4.006 0 0 0-1.603-.334c-2.439 0-4.5 2.29-4.5 5 0 2.674 2.313 6.237 6.515 10.034l3.094 2.774c.197.173.47.253.74.214a.926.926 0 0 0 .66-.438c.23-.369.116-.917-.261-1.247L9.54 16.289a1.002 1.002 0 0 1-.037-1.413c.38-.4 1.012-.417 1.413-.039l3.722 3.514a.912.912 0 0 0 .722.196.93.93 0 0 0 .66-.438c.23-.369.116-.917-.261-1.248l-3.56-3.223a1 1 0 0 1 1.336-1.488l3.742 3.33a.93.93 0 0 0 1.403-.222c.23-.369.116-.917-.261-1.248l-4.878-4.281-1.47 1.407a2.98 2.98 0 0 1-2.348.854 3.01 3.01 0 0 1-2.201-1.249c-.845-1.174-.674-2.867.398-3.939l3.855-3.578c1.042-.957 2.764-2.225 5.723-2.225 3.584 0 6.5 3.14 6.5 7Z" fill="#0a0a0a" opacity="1" data-original="#000000" class=""></path></g></svg>