<svg version="1.2" xmlns="http://www.w3.org/2000/svg" viewBox="0 0 30 30" width="35" height="35">
	<title>New Project</title>
	<style>
		.s0 { fill: #0a0a0a } 
	</style>
	<g id="Layer 1">
		<path id="&lt;Compound Path&gt;" fill-rule="evenodd" class="s0" d="m7.5 3.8v11.6c0 1.7-0.7 3.3-1.8 4.4l-1.1 1.1c-0.2 0.2-0.5 0.4-0.8 0.4-0.4 0-0.7-0.2-0.9-0.4l-1.1-1.1c-1.1-1.1-1.8-2.7-1.8-4.4v-11.6c0-2.1 1.7-3.8 3.8-3.8 2 0 3.7 1.7 3.7 3.8zm-2.5 0c0-0.7-0.6-1.3-1.2-1.3-0.7 0-1.3 0.6-1.3 1.3v11.6c0 1 0.4 2 1.1 2.7l0.2 0.1 0.1-0.1c0.7-0.7 1.1-1.7 1.1-2.7zm25 4.6v15.4c0 0.7-0.6 1.3-1.2 1.3-0.7 0-1.3-0.6-1.3-1.3v-15h-3.7c-1.4 0-2.5-1.1-2.5-2.5v-3.7h-6.3c-1.4 0-2.5 1.1-2.5 2.5v7.5c0 0.7-0.6 1.2-1.2 1.2-0.7 0-1.3-0.5-1.3-1.2v-7.5c0-2.8 2.2-5 5-5h6.7c1.6 0 3.2 0.6 4.4 1.8l2.1 2.1c1.1 1.2 1.8 2.7 1.8 4.4zm-6.2-2.1h3.1q-0.2-0.3-0.5-0.6l-2.1-2q-0.2-0.3-0.5-0.5zm1.2 13.8v6.2c0 2.1-1.7 3.8-3.7 3.8h-8.8c-2.1 0-3.7-1.7-3.7-3.8v-6.2c0-2.1 1.6-3.8 3.7-3.8h8.8c2 0 3.7 1.7 3.7 3.8zm-3.8-1.3h-8.7q0 0-0.1 0l3.3 3.3c0.6 0.6 1.7 0.6 2.4 0l3.2-3.3q0 0 0 0zm1.2 7.5v-5.1l-2.6 2.6c-0.8 0.8-1.9 1.3-3 1.3-1.1 0-2.2-0.5-3-1.3l-2.6-2.6v5.1c0 0.7 0.5 1.3 1.2 1.3h8.8c0.6 0 1.2-0.6 1.2-1.3z"/>
	</g>
</svg>