<svg xmlns="http://www.w3.org/2000/svg" version="1.1" xmlns:xlink="http://www.w3.org/1999/xlink" width="34" height="34" x="0" y="0" viewBox="0 0 24 24" style="enable-background:new 0 0 512 512" xml:space="preserve" class=""><g><path d="M24 19c0 1.654-1.346 3-3 3v1a1 1 0 1 1-2 0v-1h-.268a3.01 3.01 0 0 1-2.598-1.499 1 1 0 0 1 1.731-1.002c.179.31.511.501.867.501H21c.551 0 1-.448 1-1a.77.77 0 0 0-.644-.761l-3.041-.506A2.763 2.763 0 0 1 16 15c0-1.654 1.346-3 3-3v-1a1 1 0 1 1 2 0v1h.268a3.01 3.01 0 0 1 2.598 1.499 1 1 0 0 1-1.731 1.002 1.003 1.003 0 0 0-.867-.501H19c-.551 0-1 .448-1 1a.77.77 0 0 0 .644.761l3.041.506A2.763 2.763 0 0 1 24 19ZM5 4h1c.552 0 1-.447 1-1s.449-1 1-1h2c.551 0 1 .448 1 1s.448 1 1 1h1c1.654 0 3 1.346 3 3v2a1 1 0 1 0 2 0V7c0-2.757-2.243-5-5-5h-.171A3.006 3.006 0 0 0 10 0H8a3.006 3.006 0 0 0-2.829 2H5C2.243 2 0 4.243 0 7v12c0 2.757 2.243 5 5 5h8a5.06 5.06 0 0 0 1.249-.157 1 1 0 0 0-.497-1.938 3.067 3.067 0 0 1-.751.095H5c-1.654 0-3-1.346-3-3V7c0-1.654 1.346-3 3-3Z" fill="#0a0a0a" opacity="1" data-original="#000000" class=""></path><path d="M9.727 6.793a.999.999 0 0 1 0 1.414l-2.179 2.179c-.409.409-.946.613-1.483.613s-1.074-.204-1.483-.613L3.294 9.097a.999.999 0 1 1 1.414-1.414l1.288 1.289c.033.033.105.033.139 0l2.179-2.179a.999.999 0 0 1 1.414 0h-.001ZM9.727 12.793a.999.999 0 0 1 0 1.414l-2.179 2.179c-.409.409-.946.613-1.483.613s-1.074-.204-1.483-.613l-1.288-1.289a.999.999 0 1 1 1.414-1.414l1.288 1.289c.033.033.105.033.139 0l2.179-2.179a.999.999 0 0 1 1.414 0h-.001Z" fill="#0a0a0a" opacity="1" data-original="#000000" class=""></path></g></svg>