<svg version="1.2" xmlns="http://www.w3.org/2000/svg" viewBox="0 0 30 30" width="34" height="34">
	<title>New Project</title>
	<style>
		.s0 { fill: #0a0a0a } 
	</style>
	<g id="Layer 1">
		<path id="&lt;Compound Path&gt;" fill-rule="evenodd" class="s0" d="m30 12.5v6.3c0 3.4-2.8 6.2-6.3 6.2h-7.5v2.5h3.8c0.7 0 1.2 0.6 1.2 1.3 0 0.6-0.5 1.2-1.2 1.2h-10c-0.7 0-1.3-0.6-1.3-1.2 0-0.7 0.6-1.3 1.3-1.3h3.7v-2.5h-7.5c-3.4 0-6.2-2.8-6.2-6.2v-10c0-3.5 2.8-6.3 6.2-6.3h10c0.7 0 1.3 0.6 1.3 1.3 0 0.6-0.6 1.2-1.3 1.2h-10c-2 0-3.7 1.7-3.7 3.8v10c0 2 1.7 3.7 3.7 3.7h17.5c2.1 0 3.8-1.7 3.8-3.7v-6.3c0-0.7 0.6-1.2 1.2-1.2 0.7 0 1.3 0.5 1.3 1.2zm-11.3 3.4c0.2 2.2-1.5 4.1-3.7 4.1h-5c-0.8 0-1.4-0.8-1.2-1.7 0.6-2 2.4-5.2 5.3-5.7 2.2-0.4 4.4 1.1 4.6 3.3zm-1.7-5c-0.8-0.4-1-1.4-0.5-2 0 0 7.2-7.8 7.2-7.8 1.5-1.5 3.8-1.5 5.2 0 1.5 1.4 1.5 3.7 0 5.2l-7.3 7.1c-0.5 0.5-1.5 0.4-1.9-0.2q0 0 0 0c-0.3-0.5-0.3-1.2 0.2-1.6l7.3-7.1q0 0 0 0c0.4-0.5 0.4-1.2 0-1.7q-0.1 0-0.1 0c-0.5-0.4-1.2-0.4-1.7 0.1l-7 7.7c-0.4 0.3-0.9 0.5-1.4 0.3q0 0 0 0z"/>
	</g>
</svg>