<svg version="1.2" xmlns="http://www.w3.org/2000/svg" viewBox="0 0 30 30" width="34" height="34">
	<title>New Project</title>
	<style>
		.s0 { fill: #0a0a0a } 
	</style>
	<g id="Layer 1">
		<path id="&lt;Compound Path&gt;" fill-rule="evenodd" class="s0" d="m30 13.7v16.3h-28.8v-14.8l-1.1-5.1c-0.5-2 0.8-4 2.8-4.5l20.5-5.5c2.1-0.5 4.1 0.8 4.5 2.8l1.2 5-22.3 5.8zm-19.1-3.6l3.1-4.9-3.3 0.9-3.1 4.8 3.3-0.8zm6.7-5.8l-3.1 4.8 3.8-0.9 3-5-3.7 1.1zm8.5 1.8l-0.6-2.6c-0.1-0.5-0.4-0.8-0.8-0.9l-2.9 4.6 4.3-1.1zm-22.6 2c-0.7 0.1-1.1 0.8-1 1.5l0.6 2.5 0.9-0.2 3.1-4.8-3.6 1zm0.2 8.1v11.3h23.8v-11.3z"/>
	</g>
</svg>