<svg version="1.2" xmlns="http://www.w3.org/2000/svg" viewBox="0 0 30 30" width="34" height="34">
	<title>New Project</title>
	<style>
		.s0 { fill: #0a0a0a } 
	</style>
	<g id="Layer 1">
		<path id="&lt;Compound Path&gt;" fill-rule="evenodd" class="s0" d="m30 7.5v10c0 3.4-2.8 6.3-6.2 6.3h-7.5v2.5h5c0.6 0 1.2 0.5 1.2 1.2 0 0.7-0.6 1.3-1.2 1.3h-12.5c-0.7 0-1.3-0.6-1.3-1.3 0-0.7 0.6-1.2 1.3-1.2h5v-2.5h-7.5c-3.5 0-6.3-2.9-6.3-6.3v-10c0-3.4 2.8-6.2 6.3-6.2h17.5c3.4 0 6.2 2.8 6.2 6.2zm-2.5 0c0-2.1-1.7-3.7-3.7-3.7h-17.5c-2.1 0-3.8 1.6-3.8 3.7v10c0 2.1 1.7 3.8 3.8 3.8h17.5c2 0 3.7-1.7 3.7-3.8zm-4.8 2.3c1.4 1.5 1.4 3.9 0 5.4l-3.3 3.2c-0.2 0.2-0.5 0.3-0.9 0.3-0.3 0-0.6-0.1-0.8-0.3-0.5-0.5-0.5-1.3 0-1.8l3.2-3.2c0.5-0.5 0.5-1.3 0-1.8l-3.2-3.2c-0.5-0.5-0.5-1.3 0-1.8 0.4-0.5 1.2-0.5 1.7 0 0 0 3.3 3.2 3.3 3.2zm-10.4-1.4l-3.2 3.2c-0.5 0.5-0.5 1.3 0 1.8l3.2 3.2c0.5 0.5 0.5 1.3 0 1.8-0.2 0.2-0.5 0.3-0.8 0.3-0.4 0-0.7-0.1-0.9-0.3l-3.3-3.2c-1.4-1.5-1.4-3.9 0-5.4l3.3-3.2c0.5-0.5 1.3-0.5 1.7 0 0.5 0.5 0.5 1.3 0 1.8z"/>
	</g>
</svg>