<svg version="1.2" xmlns="http://www.w3.org/2000/svg" viewBox="0 0 30 30" width="34" height="34">
	<title>New Project</title>
	<style>
		.s0 { fill: #0a0a0a } 
	</style>
	<g id="Layer 1">
		<path id="&lt;Compound Path&gt;" fill-rule="evenodd" class="s0" d="m30 15c0 8.3-6.7 15-15 15-8.3 0-15-6.7-15-15 0-8.3 6.7-15 15-15q1.4 0 2.7 0.3c0.7 0.1 1.1 0.7 1 1.4-0.1 0.7-0.8 1.1-1.4 1q-1.2-0.2-2.3-0.2c-6.9 0-12.5 5.6-12.5 12.5 0 6.9 5.6 12.5 12.5 12.5 6.9 0 12.5-5.6 12.5-12.5q0-1.1-0.2-2.3c-0.2-0.6 0.3-1.3 1-1.4 0.7-0.1 1.3 0.3 1.4 1q0.3 1.3 0.3 2.7zm-15-7.5c-4.1 0-7.5 3.4-7.5 7.5 0 4.1 3.4 7.5 7.5 7.5 4.1 0 7.5-3.4 7.5-7.5q0-0.5-0.1-1.1c-0.1-0.7 0.4-1.3 1.1-1.4 0.7-0.1 1.3 0.4 1.4 1.1q0.1 0.7 0.1 1.4c0 5.5-4.5 10-10 10-5.5 0-10-4.5-10-10 0-5.5 4.5-10 10-10q0.7 0 1.4 0.1c0.7 0.1 1.2 0.7 1.1 1.4-0.1 0.7-0.8 1.2-1.4 1.1q-0.6-0.1-1.1-0.1zm-1.6 3.9c0.5 0.5 0.4 1.3-0.1 1.8-0.5 0.4-0.8 1.1-0.8 1.8 0 1.4 1.1 2.5 2.5 2.5 0.7 0 1.4-0.3 1.9-0.8 0.4-0.5 1.2-0.6 1.7-0.1 0.5 0.4 0.6 1.2 0.1 1.7-0.9 1.1-2.3 1.7-3.7 1.7-2.8 0-5-2.2-5-5 0-1.4 0.6-2.8 1.7-3.7 0.5-0.5 1.3-0.4 1.7 0.1zm2 1.5l5.9-5.9v-3.2q0-0.6 0.3-0.9l2.5-2.5c0.4-0.4 0.9-0.5 1.4-0.3 0.4 0.2 0.7 0.7 0.7 1.2v2.4h2.5c0.5 0 1 0.4 1.2 0.8 0.2 0.5 0.1 1-0.3 1.4l-2.5 2.5c-0.2 0.2-0.5 0.3-0.9 0.3h-3.2l-5.9 5.9q-0.4 0.4-0.9 0.4-0.5 0-0.9-0.4c-0.4-0.5-0.4-1.2 0-1.7z"/>
	</g>
</svg>