<svg xmlns="http://www.w3.org/2000/svg" version="1.1" xmlns:xlink="http://www.w3.org/1999/xlink" width="34" height="34" x="0" y="0" viewBox="0 0 24 24" style="enable-background:new 0 0 512 512" xml:space="preserve" class=""><g><path d="M16.987 2.5a2.5 2.5 0 1 1 5 0 2.5 2.5 0 0 1-5 0ZM20 6h-3.12c-.279 0-.549-.118-.737-.324L11.237.324a1.001 1.001 0 0 0-1.475 1.351l4.905 5.352A3.01 3.01 0 0 0 16.879 8h3.12c1.103 0 2 .897 2 2v3c0 1.103-.897 2-2 2h-2v-4a1 1 0 1 0-2 0v12a1 1 0 1 0 2 0v-6h2v6a1 1 0 1 0 2 0v-6.556c1.19-.694 2-1.97 2-3.444v-3c0-2.206-1.794-4-4-4ZM5.325 14.549c-.732-.73-1.921-.731-2.629-.021L.314 16.772a1 1 0 1 0 1.371 1.455l1.314-1.238V23a1 1 0 1 0 2 0v-6.011l1.314 1.238a.99.99 0 0 0 .686.272 1 1 0 0 0 .686-1.727l-2.36-2.224Zm7-5c-.731-.732-1.921-.731-2.629-.021l-2.382 2.244a1 1 0 1 0 1.371 1.455l1.314-1.238V23a1 1 0 1 0 2 0V11.989l1.314 1.238a.99.99 0 0 0 .686.272 1 1 0 0 0 .686-1.727l-2.36-2.224Z" fill="#0a0a0a" opacity="1" data-original="#000000" class=""></path></g></svg>