<svg xmlns="http://www.w3.org/2000/svg" version="1.1" xmlns:xlink="http://www.w3.org/1999/xlink" width="35" height="35" x="0" y="0" viewBox="0 0 24 24" style="enable-background:new 0 0 512 512" xml:space="preserve" class=""><g><path d="M20.25 2.158a1 1 0 1 0-.499 1.937 2.998 2.998 0 0 1 2.25 2.906v7H2V7c0-1.37.925-2.565 2.249-2.906a.999.999 0 1 0-.498-1.936A4.996 4.996 0 0 0 0 7v8c0 2.757 2.243 5 5 5h6v2H7a1 1 0 0 0 0 2h10a1 1 0 0 0 0-2h-4v-2h6c2.757 0 5-2.243 5-5V7a4.998 4.998 0 0 0-3.75-4.842zM19 18H5a2.996 2.996 0 0 1-2.816-2h19.632A2.996 2.996 0 0 1 19 18zm-7.454-5.892c.261.133.566.145.836.034 3.752-1.546 4.582-3.994 4.618-5.794V3.515A2.775 2.775 0 0 0 15.097.878L12.875.141a2.797 2.797 0 0 0-1.749 0L8.904.878a2.773 2.773 0 0 0-1.903 2.637v2.854c.05 2.294 1.58 4.225 4.546 5.739zM9 3.515c0-.336.214-.633.533-.738l2.222-.737a.772.772 0 0 1 .489 0l2.222.737a.775.775 0 0 1 .533.738v2.812c-.032 1.631-1.001 2.872-2.957 3.78-2.015-1.113-3.012-2.352-3.043-3.76V3.515z" fill="#0a0a0a" opacity="1" data-original="#000000" class=""></path></g></svg>