<?xml version="1.0" encoding="UTF-8"?>
<svg id="Layer_1" data-name="Layer 1" xmlns="http://www.w3.org/2000/svg" viewBox="0 0 1500 1500">
  <defs>
    <style>
      .cls-1 {
        fill: #fff;
      }
    </style>
  </defs>
  <rect x="0" width="1500" height="1500"/>
  <path class="cls-1" d="M250,1133.11c8.38-7.82,15.36-14.32,21.05-19.63,41.12,30.29,77.49,59.14,115.89,84.98,124.44,83.73,262.85,117.52,411.76,111.06,60.27-2.62,116.73-18.07,166.02-54.48,100.27-74.09,98.87-204.41-6.42-270.6-41.94-26.36-90.32-43.91-137.62-60.04-102.29-34.89-206.23-64.91-308.53-99.78-37.77-12.87-74.35-31.13-108.81-51.44-203.49-119.96-200.47-432.25,23.09-549.72,97.91-51.45,202.56-74.69,312.89-71.65,171.04,4.7,317.4,69.77,443.54,183.3,3.63,3.27,6.46,7.43,10.57,12.25-6.31,8.32-12.24,16.14-20.38,26.88-11.56-9.45-21.98-17.9-32.32-26.44-97.04-80.1-205.55-135.57-331.57-152.35-62.83-8.37-125.5-8.49-186.94,10.62-40.26,12.52-76.82,31.66-106.87,61.55-71.86,71.48-67.23,183.29,12.72,245.03,27.36,21.13,59.66,38.47,92.41,49.55,95.21,32.2,191.76,60.47,287.86,90.04,66.23,20.38,131.21,43.36,191.02,79.48,155.05,93.64,172.33,255.38,132.14,373.65-21.36,62.84-59.82,112.89-114.44,150.56-78.75,54.31-167.71,81.3-261.47,89.12-153.28,12.78-301.25-8.79-439.12-81.84-56.26-29.81-120.92-79.13-166.45-130.07Zm88.68-775.71c-1.98-.81-3.95-1.63-5.93-2.44-3.3,5.01-6.99,9.8-9.83,15.05-53.83,99.52-48.67,272.45,85.48,363.28,46.41,31.42,97.11,52.96,149.81,70.01,95.65,30.94,192.34,58.76,287.48,91.17,44.92,15.3,90.01,33.72,130.21,58.52,113.29,69.88,130.77,200.33,43.81,300.91-2.86,3.31-5.35,6.94-10.89,14.19,118.78-49.43,173.78-205.86,89.05-322.97-38.23-52.84-91.18-86.53-150.57-109.47-53.85-20.8-109.26-37.61-164.19-55.55-84.78-27.69-170.13-53.7-254.48-82.63-50.72-17.39-93.61-48.28-130.14-87.79-55.65-60.19-77.16-131.18-67.45-212,1.63-13.53,5.04-26.85,7.63-40.27Zm149.5-116.28c-95.01,43.66-140.1,133.46-120.17,231.96,15.77,77.95,63.36,133.97,131.92,170.24,41.93,22.18,87.22,38.96,132.42,53.85,103.84,34.19,209.26,63.67,312.54,99.39,41,14.18,80.8,35.92,116.32,61.02,93.75,66.25,126.11,159.18,106.82,271.2-1.26,7.3-2.55,14.59-3.82,21.88,13.04-12.7,21.67-26.47,27.76-41.28,48.23-117.36,18.53-269.41-109.49-346.54-61.05-36.78-127.41-59.34-194.8-80.03-90.12-27.67-180.73-53.86-270.05-83.89-35.34-11.88-70.24-28.74-101.07-49.63-94.95-64.34-115.1-184.05-49.76-278.82,6.87-9.96,14.24-19.57,21.38-29.35Z"/>
</svg>